HIERARCHY
ROOT Hips
{
	OFFSET 0.00000 0.00000 0.00000
	CHANNELS 6 Xposition Yposition Zposition Zrotation Yrotation Xrotation 
	JOINT LHipJoint
	{
		OFFSET 0 0 0
		CHANNELS 3 Zrotation Yrotation Xrotation
		JOINT LeftHip
		{
			OFFSET 3.13874 -1.57224 1.49786
			CHANNELS 3 Zrotation Yrotation Xrotation
			JOINT LeftKnee
			{
				OFFSET 2.10955 -5.79594 0.00000
				CHANNELS 3 Zrotation Yrotation Xrotation
				JOINT LeftAnkle
				{
					OFFSET 2.41843 -6.64458 0.00000
					CHANNELS 3 Zrotation Yrotation Xrotation
					JOINT LeftToe
					{
						OFFSET 0.04713 -0.12948 1.66229
						CHANNELS 3 Zrotation Yrotation Xrotation
						End Site
						{
							OFFSET 0.00000 -0.00000 0.85167
						}
					}
				}
			}
		}
	}
	JOINT RHipJoint
	{
		OFFSET 0 0 0
		CHANNELS 3 Zrotation Yrotation Xrotation
		JOINT RightHip
		{
			OFFSET -3.13988 -1.57224 1.49786
			CHANNELS 3 Zrotation Yrotation Xrotation
			JOINT RightKnee
			{
				OFFSET -2.15006 -5.90725 0.00000
				CHANNELS 3 Zrotation Yrotation Xrotation
				JOINT RightAnkle
				{
					OFFSET -2.34496 -6.44273 0.00000
					CHANNELS 3 Zrotation Yrotation Xrotation
					JOINT RightToe
					{
						OFFSET -0.08699 -0.23900 1.55223
						CHANNELS 3 Zrotation Yrotation Xrotation
						End Site
						{
							OFFSET -0.00000 -0.00000 0.80281
						}
					}
				}
			}
		}
	}
	JOINT lowerback
	{
		OFFSET 0 0 0
		CHANNELS 3 Zrotation Yrotation Xrotation
		JOINT Chest
		{
			OFFSET 0.01292 1.96517 -0.16495
			CHANNELS 3 Zrotation Yrotation Xrotation
			JOINT Chest2
			{
				OFFSET 0.02122 1.88666 0.19706
				CHANNELS 3 Zrotation Yrotation Xrotation
				JOINT lowerneck
				{
					OFFSET 0 0 0
					CHANNELS 3 Zrotation Yrotation Xrotation
					JOINT Neck
					{
						OFFSET -0.01683 1.81591 0.07903
						CHANNELS 3 Zrotation Yrotation Xrotation
						JOINT Head
						{
							OFFSET 0.00815 1.74013 -0.47700
							CHANNELS 3 Zrotation Yrotation Xrotation
							End Site
							{
								OFFSET -0.00204 1.83225 -0.16933
							}
						}
					}
				}
				JOINT LeftCollar
				{
					OFFSET 0 0 0
					CHANNELS 3 Zrotation Yrotation Xrotation
					JOINT LeftShoulder
					{
						OFFSET 3.38482 1.41533 0.19802
CHANNELS 3 Zrotation Xrotation Yrotation
						JOINT LeftElbow
						{
OFFSET 0 -4.327120 0.000000
CHANNELS 3 Zrotation Xrotation Yrotation
							JOINT LeftWrist
							{
OFFSET 0 -3.285870 -0.000000
CHANNELS 3 Zrotation Xrotation Yrotation
								JOINT lhand
								{
									OFFSET 0 0 0
CHANNELS 3 Zrotation Xrotation Yrotation
									JOINT LFingers
									{
OFFSET 0 -0.433160 -0.000000
CHANNELS 3 Zrotation Xrotation Yrotation
										End Site
										{
OFFSET 0 -0.349220 -0.000000
										}
									}
								}
								JOINT LThumb
								{
OFFSET 0 0.000000 0.000000
CHANNELS 3 Zrotation Xrotation Yrotation
									End Site
									{
OFFSET 0 -0.354560 0.354560
									}
								}
							}
						}
					}
				}
				JOINT RightCollar
				{
					OFFSET 0 0 0
					CHANNELS 3 Zrotation Yrotation Xrotation
					JOINT RightShoulder
					{
						OFFSET -3.09725 1.62858 -0.14144
CHANNELS 3 Zrotation Xrotation Yrotation
						JOINT RightElbow
						{
OFFSET 0 -4.291040 0.000000
CHANNELS 3 Zrotation Xrotation Yrotation
							JOINT RightWrist
							{
OFFSET 0 -3.227200 -0.000000
CHANNELS 3 Zrotation Xrotation Yrotation
								JOINT rhand
								{
									OFFSET 0 0 0
CHANNELS 3 Zrotation Xrotation Yrotation
									JOINT RFingers
									{
OFFSET 0 -0.543620 -0.000000
CHANNELS 3 Zrotation Xrotation Yrotation
										End Site
										{
OFFSET 0 -0.438280 -0.000000
										}
									}
								}
								JOINT RThumb
								{
OFFSET 0 0.000000 0.000000
CHANNELS 3 Zrotation Xrotation Yrotation
									End Site
									{
OFFSET 0 -0.444970 0.444970
									}
								}
							}
						}
					}
				}
			}
		}
	}
}
MOTION
Frames: 6
Frame Time: 0.008333333333333333
-11.798517 15.705214 -4.951781 -183.556351 78.133870 -174.314878 0.000000 0.000000 0.000000 -41.731010 -15.325396 18.016492 0.000301 -0.009940 -0.027387 1.195757 8.563545 -25.395984 11.321748 -18.088913 -63.821969 0.000000 0.000000 0.000000 12.452923 28.597913 -25.790188 -0.058379 -1.361200 3.746740 -2.026306 -20.578386 -40.549903 -0.333670 3.684289 -10.193126 -6.308987 -1.893072 7.830627 2.305696 -2.950070 -10.114963 6.720348 -0.351077 -15.279367 1.657619 -1.418692 -16.453588 -9.131165 1.044138 29.026168 -3.555900 -0.273475 12.395267 0.000000 0.000000 0.000000 4.518679 6.330512 -29.924600 25.339971 -36.548591 8.491902 32.016079 27.361912 -33.782574 0.000000 0.000000 0.000000 -7.125000 0.000000 0.000000 -0.774728 68.252011 0.432542 0.000000 0.000000 0.000000 -50.189409 -17.724075 -11.774857 -151.733674 -39.360040 -109.707790 -61.258142 17.014083 8.591656 0.000000 0.000000 0.000000 7.125000 0.000000 0.000000 -32.043001 44.658162 -0.298776
-11.692552 15.693243 -4.959444 -183.209052 77.744310 -173.889634 0.000000 0.000000 0.000000 -41.768930 -15.399789 18.584075 0.000202 -0.087721 -0.241061 1.162672 8.739135 -25.270253 11.349144 -18.101740 -63.910208 0.000000 0.000000 0.000000 11.306968 30.915640 -25.230563 -0.017137 -0.834201 2.292821 -2.035219 -22.363357 -42.184510 -0.387409 3.996167 -11.065977 -6.374960 -1.966215 7.782380 2.355489 -3.048011 -10.144990 6.831444 -0.384031 -15.264502 1.669558 -1.469175 -16.420864 -9.072295 0.920314 28.848605 -3.546001 -0.321524 12.306600 0.000000 0.000000 0.000000 4.438037 6.333637 -30.106801 25.496913 -36.707572 8.585206 31.979738 27.182836 -33.702623 0.000000 0.000000 0.000000 -7.125000 0.000000 0.000000 -0.775583 68.156833 0.431325 0.000000 0.000000 0.000000 -50.542628 -17.806526 -12.465771 -151.821222 -39.280319 -109.763371 -61.227326 16.346750 8.386368 0.000000 0.000000 0.000000 7.125000 0.000000 0.000000 -31.845804 44.304187 -0.612529
-11.584105 15.681691 -4.968589 -183.145614 77.353590 -173.721831 0.000000 0.000000 0.000000 -41.809847 -15.414800 19.032476 0.000329 -0.111403 -0.306103 1.195864 8.425458 -25.299437 11.279911 -18.069006 -63.686747 0.000000 0.000000 0.000000 11.354520 30.684284 -25.298978 -0.011048 -0.552430 1.518268 -2.133124 -21.531068 -41.875777 -0.348386 3.777956 -10.454436 -6.464809 -2.046769 7.732038 2.391556 -3.160323 -10.200310 6.943571 -0.419079 -15.275670 1.594404 -1.522590 -16.389172 -8.959521 0.806479 28.688796 -3.499564 -0.367931 12.227954 0.000000 0.000000 0.000000 4.357267 6.411512 -30.245471 25.659269 -36.869324 8.682794 32.108010 27.119206 -33.695136 0.000000 0.000000 0.000000 -7.125000 0.000000 0.000000 -0.586305 68.188635 0.326197 0.000000 0.000000 0.000000 -50.899874 -17.829047 -13.114155 -151.902069 -39.206043 -109.814409 -60.701508 16.061002 8.621920 0.000000 0.000000 0.000000 7.125000 0.000000 0.000000 -31.459215 44.547256 -0.399608
-11.475607 15.670147 -4.977765 -183.088060 76.962846 -173.559364 0.000000 0.000000 0.000000 -41.850825 -15.428580 19.478406 0.000460 -0.133964 -0.368064 1.230429 8.101642 -25.331832 11.208675 -18.035329 -63.456826 0.000000 0.000000 0.000000 11.426809 30.400097 -25.380409 -0.005687 -0.275742 0.757796 -2.232874 -20.644535 -41.526768 -0.307440 3.548759 -9.812131 -6.555153 -2.127476 7.681654 2.427338 -3.272932 -10.256154 7.055720 -0.454171 -15.287379 1.517446 -1.576066 -16.357501 -8.845629 0.692850 28.529354 -3.452369 -0.414303 12.149516 0.000000 0.000000 0.000000 4.276493 6.490937 -30.383240 25.821736 -37.031134 8.780472 32.239694 27.057968 -33.689150 0.000000 0.000000 0.000000 -7.125000 0.000000 0.000000 -0.393087 68.223069 0.218916 0.000000 0.000000 0.000000 -51.257204 -17.850325 -13.761656 -151.982776 -39.131880 -109.865353 -60.165431 15.783163 8.866607 0.000000 0.000000 0.000000 7.125000 0.000000 0.000000 -31.068702 44.802698 -0.175771
-11.367109 15.658603 -4.986941 -183.030506 76.572102 -173.396896 0.000000 0.000000 0.000000 -41.891804 -15.442361 19.924337 0.000592 -0.156526 -0.430026 1.264994 7.777825 -25.364227 11.137439 -18.001651 -63.226905 0.000000 0.000000 0.000000 11.499097 30.115911 -25.461840 -0.000327 0.000946 -0.002677 -2.332624 -19.758002 -41.177759 -0.266494 3.319561 -9.169825 -6.645497 -2.208184 7.631269 2.463120 -3.385541 -10.311998 7.167869 -0.489262 -15.299087 1.440488 -1.629543 -16.325829 -8.731738 0.579222 28.369912 -3.405175 -0.460675 12.071078 0.000000 0.000000 0.000000 4.195720 6.570362 -30.521008 25.984204 -37.192944 8.878150 32.371379 26.996730 -33.683165 0.000000 0.000000 0.000000 -7.125000 0.000000 0.000000 -0.199870 68.257503 0.111635 0.000000 0.000000 0.000000 -51.614534 -17.871604 -14.409158 -152.063484 -39.057718 -109.916297 -59.629354 15.505324 9.111295 0.000000 0.000000 0.000000 7.125000 0.000000 0.000000 -30.678188 45.058140 0.048065
-11.254812 15.647430 -4.996951 -183.331833 76.184168 -173.576942 0.000000 0.000000 0.000000 -41.946094 -15.347704 20.215009 0.000476 -0.134211 -0.368726 1.249619 7.612385 -25.129159 11.116175 -17.991446 -63.158110 0.000000 0.000000 0.000000 11.400005 29.850904 -25.756191 -0.000896 0.118855 -0.326624 -2.424652 -18.819922 -40.833908 -0.209118 2.870001 -7.921683 -6.790229 -2.295532 7.610287 2.457949 -3.522085 -10.405337 7.272172 -0.526300 -15.371051 1.401518 -1.695064 -16.324332 -8.675261 0.467168 28.301920 -3.390656 -0.509364 12.036280 0.000000 0.000000 0.000000 4.094934 6.776013 -30.512074 26.152570 -37.357934 8.980461 32.627776 27.149370 -33.713407 0.000000 0.000000 0.000000 -7.125000 0.000000 0.000000 0.155957 68.369210 -0.089351 0.000000 0.000000 0.000000 -51.893323 -17.824009 -14.984791 -152.133536 -38.992882 -109.960353 -59.475477 15.129210 9.167987 0.000000 0.000000 0.000000 7.125000 0.000000 0.000000 -30.553716 45.107982 0.089805
